<?xml version="1.0" encoding="UTF-8" standalone="no"?>
<!-- Created with Inkscape (http://www.inkscape.org/) -->

<svg
   xmlns:dc="http://purl.org/dc/elements/1.1/"
   xmlns:cc="http://creativecommons.org/ns#"
   xmlns:rdf="http://www.w3.org/1999/02/22-rdf-syntax-ns#"
   xmlns:svg="http://www.w3.org/2000/svg"
   xmlns="http://www.w3.org/2000/svg"
   xmlns:xlink="http://www.w3.org/1999/xlink"
   version="1.1"
   width="22"
   height="22"
   id="svg3042">
  <defs
     id="defs3044">
    <linearGradient
       id="linearGradient4776">
      <stop
         id="stop4778"
         style="stop-color:#272739;stop-opacity:1"
         offset="0" />
    </linearGradient>
    <linearGradient
       x1="158.36838"
       y1="770.21252"
       x2="391.97574"
       y2="770.21252"
       id="linearGradient4780"
       xlink:href="#linearGradient4776"
       gradientUnits="userSpaceOnUse" />
  </defs>
  <metadata
     id="metadata3047">
    <rdf:RDF>
      <cc:Work
         rdf:about="">
        <dc:format>image/svg+xml</dc:format>
        <dc:type
           rdf:resource="http://purl.org/dc/dcmitype/StillImage" />
        <dc:title></dc:title>
      </cc:Work>
    </rdf:RDF>
  </metadata>
  <g
     transform="translate(-138.11452,-745.64671)"
     id="layer1">
    <g
       transform="matrix(1.0120505,0,0,1.0120505,5.2730713,-24.219381)"
       id="g3094">
      <g
         transform="translate(-816.20279,551.54822)"
         id="g4218">
        <g
           transform="translate(815.89999,-551.54839)"
           id="g4276">
          <path
             d="m 150.33557,763.66423 -7.89707,5e-5 -0.007,3.95185 6.42263,-2e-5 -6.42263,2e-5 3.5e-4,3.9505 7.90344,-5e-5 m -11.85616,-9.87906 3.5e-4,13.83353 11.85591,-5e-5 m -5.92736,-9.88103 5.92824,-5e-5 0,3.95237 -5.92824,5e-5 m 5.92824,-7.90487 -9.88096,5e-5 2.1e-4,11.85529 9.87964,-5e-5 m -17.78459,-11.85524 3.5e-4,19.76192 19.76154,-3e-5 m -15.80917,-19.76189 0,15.80954 13.83187,-5e-5 m -15.80841,-12.79817 3.5e-4,14.77441 17.78538,-6e-5 0,-17.78567 m -17.78567,0 -6e-5,1.03513"
             id="path4595"
             style="fill:none;stroke:#000000;stroke-width:0.98809302;stroke-linecap:square;stroke-linejoin:miter;stroke-miterlimit:1.5;stroke-opacity:1;stroke-dasharray:none;display:inline" />
        </g>
      </g>
    </g>
  </g>
</svg>
